<mxfile host="app.diagrams.net" modified="2022-10-17T03:33:18.118Z" agent="5.0 (Windows NT 10.0; Win64; x64) AppleWebKit/537.36 (KHTML, like Gecko) Chrome/106.0.0.0 Safari/537.36 Edg/106.0.1370.47" etag="fwcwQmEqhgniURBfXMef" version="20.4.0" type="github">
  <diagram id="nSHfFxLYQGdtGSZHBYBN" name="Page-1">
    <mxGraphModel dx="1208" dy="671" grid="1" gridSize="10" guides="1" tooltips="1" connect="1" arrows="1" fold="1" page="1" pageScale="1" pageWidth="850" pageHeight="1100" math="0" shadow="0">
      <root>
        <mxCell id="0" />
        <mxCell id="1" parent="0" />
        <mxCell id="QR0sqvMbxU9Uvmxa56qR-1" value="Supplier Rep" style="swimlane;whiteSpace=wrap;startSize=23;" vertex="1" parent="1">
          <mxGeometry x="50" y="40" width="280" height="570" as="geometry" />
        </mxCell>
        <mxCell id="QR0sqvMbxU9Uvmxa56qR-57" style="edgeStyle=orthogonalEdgeStyle;rounded=0;orthogonalLoop=1;jettySize=auto;html=1;entryX=0.5;entryY=0;entryDx=0;entryDy=0;" edge="1" parent="QR0sqvMbxU9Uvmxa56qR-1" source="QR0sqvMbxU9Uvmxa56qR-2" target="QR0sqvMbxU9Uvmxa56qR-56">
          <mxGeometry relative="1" as="geometry" />
        </mxCell>
        <mxCell id="QR0sqvMbxU9Uvmxa56qR-2" value="" style="ellipse;shape=startState;fillColor=#000000;strokeColor=#ff0000;" vertex="1" parent="QR0sqvMbxU9Uvmxa56qR-1">
          <mxGeometry x="83.13" y="40" width="30" height="30" as="geometry" />
        </mxCell>
        <mxCell id="QR0sqvMbxU9Uvmxa56qR-55" style="edgeStyle=orthogonalEdgeStyle;rounded=0;orthogonalLoop=1;jettySize=auto;html=1;entryX=0.5;entryY=0;entryDx=0;entryDy=0;" edge="1" parent="QR0sqvMbxU9Uvmxa56qR-1" source="QR0sqvMbxU9Uvmxa56qR-52" target="QR0sqvMbxU9Uvmxa56qR-54">
          <mxGeometry relative="1" as="geometry" />
        </mxCell>
        <mxCell id="QR0sqvMbxU9Uvmxa56qR-52" value="Supplier Rep Providing Quote Process" style="whiteSpace=wrap;html=1;" vertex="1" parent="QR0sqvMbxU9Uvmxa56qR-1">
          <mxGeometry x="60" y="440" width="142.88" height="60" as="geometry" />
        </mxCell>
        <mxCell id="QR0sqvMbxU9Uvmxa56qR-54" value="" style="ellipse;html=1;shape=endState;fillColor=#000000;strokeColor=#ff0000;" vertex="1" parent="QR0sqvMbxU9Uvmxa56qR-1">
          <mxGeometry x="116.44" y="530" width="30" height="30" as="geometry" />
        </mxCell>
        <mxCell id="QR0sqvMbxU9Uvmxa56qR-56" value="Submit a Quote Request" style="whiteSpace=wrap;html=1;" vertex="1" parent="QR0sqvMbxU9Uvmxa56qR-1">
          <mxGeometry x="19.819999999999997" y="120" width="156.63" height="40" as="geometry" />
        </mxCell>
        <mxCell id="QR0sqvMbxU9Uvmxa56qR-14" value="System" style="swimlane;whiteSpace=wrap" vertex="1" parent="1">
          <mxGeometry x="330" y="40" width="457.5" height="570" as="geometry" />
        </mxCell>
        <mxCell id="QR0sqvMbxU9Uvmxa56qR-34" value="No" style="edgeStyle=orthogonalEdgeStyle;rounded=0;orthogonalLoop=1;jettySize=auto;html=1;entryX=0;entryY=0.5;entryDx=0;entryDy=0;exitX=0.5;exitY=0;exitDx=0;exitDy=0;" edge="1" parent="QR0sqvMbxU9Uvmxa56qR-14" source="QR0sqvMbxU9Uvmxa56qR-30" target="QR0sqvMbxU9Uvmxa56qR-31">
          <mxGeometry x="-0.376" relative="1" as="geometry">
            <mxPoint as="offset" />
          </mxGeometry>
        </mxCell>
        <mxCell id="QR0sqvMbxU9Uvmxa56qR-30" value="Is the item &lt;br&gt;available?" style="rhombus;whiteSpace=wrap;html=1;" vertex="1" parent="QR0sqvMbxU9Uvmxa56qR-14">
          <mxGeometry x="95" y="100.88" width="112" height="78.25" as="geometry" />
        </mxCell>
        <mxCell id="QR0sqvMbxU9Uvmxa56qR-39" style="edgeStyle=orthogonalEdgeStyle;rounded=0;orthogonalLoop=1;jettySize=auto;html=1;entryX=1;entryY=0.5;entryDx=0;entryDy=0;" edge="1" parent="QR0sqvMbxU9Uvmxa56qR-14" source="QR0sqvMbxU9Uvmxa56qR-31" target="QR0sqvMbxU9Uvmxa56qR-35">
          <mxGeometry relative="1" as="geometry">
            <Array as="points">
              <mxPoint x="420" y="250" />
            </Array>
          </mxGeometry>
        </mxCell>
        <mxCell id="QR0sqvMbxU9Uvmxa56qR-31" value="Add to the Unavailable Items List" style="rounded=1;whiteSpace=wrap;html=1;" vertex="1" parent="QR0sqvMbxU9Uvmxa56qR-14">
          <mxGeometry x="310" y="49.999999999999986" width="132" height="40" as="geometry" />
        </mxCell>
        <mxCell id="QR0sqvMbxU9Uvmxa56qR-36" value="Yes" style="edgeStyle=orthogonalEdgeStyle;rounded=0;orthogonalLoop=1;jettySize=auto;html=1;entryX=1;entryY=0.5;entryDx=0;entryDy=0;exitX=0.5;exitY=0;exitDx=0;exitDy=0;" edge="1" parent="QR0sqvMbxU9Uvmxa56qR-14" source="QR0sqvMbxU9Uvmxa56qR-35" target="QR0sqvMbxU9Uvmxa56qR-30">
          <mxGeometry x="-0.6977" relative="1" as="geometry">
            <mxPoint as="offset" />
          </mxGeometry>
        </mxCell>
        <mxCell id="QR0sqvMbxU9Uvmxa56qR-38" value="Check for Nex Item" style="edgeLabel;html=1;align=center;verticalAlign=middle;resizable=0;points=[];" vertex="1" connectable="0" parent="QR0sqvMbxU9Uvmxa56qR-36">
          <mxGeometry x="0.1157" y="1" relative="1" as="geometry">
            <mxPoint x="2" y="-15" as="offset" />
          </mxGeometry>
        </mxCell>
        <mxCell id="QR0sqvMbxU9Uvmxa56qR-45" value="No" style="edgeStyle=orthogonalEdgeStyle;rounded=0;orthogonalLoop=1;jettySize=auto;html=1;entryX=0.5;entryY=0;entryDx=0;entryDy=0;" edge="1" parent="QR0sqvMbxU9Uvmxa56qR-14" source="QR0sqvMbxU9Uvmxa56qR-35" target="QR0sqvMbxU9Uvmxa56qR-43">
          <mxGeometry x="-0.2" relative="1" as="geometry">
            <mxPoint as="offset" />
          </mxGeometry>
        </mxCell>
        <mxCell id="QR0sqvMbxU9Uvmxa56qR-35" value="Are there more &lt;br&gt;Items in the quote?" style="rhombus;whiteSpace=wrap;html=1;" vertex="1" parent="QR0sqvMbxU9Uvmxa56qR-14">
          <mxGeometry x="250" y="200" width="150" height="100" as="geometry" />
        </mxCell>
        <mxCell id="QR0sqvMbxU9Uvmxa56qR-41" value="Yes" style="edgeStyle=orthogonalEdgeStyle;rounded=0;orthogonalLoop=1;jettySize=auto;html=1;entryX=0;entryY=0.5;entryDx=0;entryDy=0;exitX=0.5;exitY=1;exitDx=0;exitDy=0;" edge="1" parent="QR0sqvMbxU9Uvmxa56qR-14" source="QR0sqvMbxU9Uvmxa56qR-30" target="QR0sqvMbxU9Uvmxa56qR-35">
          <mxGeometry x="-0.588" y="-1" relative="1" as="geometry">
            <mxPoint x="190" y="380" as="targetPoint" />
            <Array as="points">
              <mxPoint x="151" y="250" />
            </Array>
            <mxPoint as="offset" />
          </mxGeometry>
        </mxCell>
        <mxCell id="QR0sqvMbxU9Uvmxa56qR-46" style="edgeStyle=orthogonalEdgeStyle;rounded=0;orthogonalLoop=1;jettySize=auto;html=1;" edge="1" parent="QR0sqvMbxU9Uvmxa56qR-14" source="QR0sqvMbxU9Uvmxa56qR-43" target="QR0sqvMbxU9Uvmxa56qR-44">
          <mxGeometry relative="1" as="geometry" />
        </mxCell>
        <mxCell id="QR0sqvMbxU9Uvmxa56qR-43" value="Add the Vehicle &lt;br&gt;specifications to the Unavailable Items List" style="rounded=1;whiteSpace=wrap;html=1;" vertex="1" parent="QR0sqvMbxU9Uvmxa56qR-14">
          <mxGeometry x="239" y="350" width="172" height="70" as="geometry" />
        </mxCell>
        <mxCell id="QR0sqvMbxU9Uvmxa56qR-49" style="edgeStyle=orthogonalEdgeStyle;rounded=0;orthogonalLoop=1;jettySize=auto;html=1;entryX=0.5;entryY=0;entryDx=0;entryDy=0;" edge="1" parent="QR0sqvMbxU9Uvmxa56qR-14" source="QR0sqvMbxU9Uvmxa56qR-44" target="QR0sqvMbxU9Uvmxa56qR-47">
          <mxGeometry relative="1" as="geometry" />
        </mxCell>
        <mxCell id="QR0sqvMbxU9Uvmxa56qR-44" value="Create 3rd Party Supplier form with the Unavailable Items List" style="rounded=1;whiteSpace=wrap;html=1;" vertex="1" parent="QR0sqvMbxU9Uvmxa56qR-14">
          <mxGeometry x="20" y="360" width="172" height="50" as="geometry" />
        </mxCell>
        <mxCell id="QR0sqvMbxU9Uvmxa56qR-47" value="Email the Form to the 3rd Party Supplier as a Generated Link" style="rounded=1;whiteSpace=wrap;html=1;" vertex="1" parent="QR0sqvMbxU9Uvmxa56qR-14">
          <mxGeometry x="20" y="445" width="172" height="50" as="geometry" />
        </mxCell>
        <mxCell id="QR0sqvMbxU9Uvmxa56qR-32" value="Create Unavailable Items List" style="edgeStyle=orthogonalEdgeStyle;rounded=0;orthogonalLoop=1;jettySize=auto;html=1;entryX=0;entryY=0.5;entryDx=0;entryDy=0;exitX=1;exitY=0.5;exitDx=0;exitDy=0;" edge="1" parent="1" source="QR0sqvMbxU9Uvmxa56qR-56" target="QR0sqvMbxU9Uvmxa56qR-30">
          <mxGeometry relative="1" as="geometry">
            <mxPoint x="240" y="180" as="sourcePoint" />
          </mxGeometry>
        </mxCell>
        <mxCell id="QR0sqvMbxU9Uvmxa56qR-53" style="edgeStyle=orthogonalEdgeStyle;rounded=0;orthogonalLoop=1;jettySize=auto;html=1;entryX=1;entryY=0.5;entryDx=0;entryDy=0;" edge="1" parent="1" source="QR0sqvMbxU9Uvmxa56qR-47" target="QR0sqvMbxU9Uvmxa56qR-52">
          <mxGeometry relative="1" as="geometry" />
        </mxCell>
      </root>
    </mxGraphModel>
  </diagram>
</mxfile>
